<?xml version="1.0" standalone="no"?>
<!DOCTYPE svg PUBLIC "-//W3C//DTD SVG 20010904//EN"
 "http://www.w3.org/TR/2001/REC-SVG-20010904/DTD/svg10.dtd">
<svg version="1.0" xmlns="http://www.w3.org/2000/svg"
 width="174.000000pt" height="132.000000pt" viewBox="0 0 174.000000 132.000000"
 preserveAspectRatio="xMidYMid meet">

<g transform="translate(0.000000,132.000000) scale(0.100000,-0.100000)"
fill="#000000" stroke="none">
<path d="M0 660 l0 -660 870 0 870 0 0 660 0 660 -870 0 -870 0 0 -660z m826
335 c30 -12 34 -12 34 1 0 12 12 14 63 12 l62 -3 0 -115 0 -115 -59 0 c-59 0
-60 0 -68 33 -28 108 -255 120 -266 14 -4 -44 20 -56 172 -85 150 -30 197 -55
234 -127 61 -121 -8 -256 -150 -290 -63 -15 -184 -8 -226 14 -38 20 -42 20
-42 1 0 -12 -13 -15 -60 -15 l-60 0 0 120 0 120 60 0 c48 0 60 -3 60 -15 0
-33 32 -75 70 -95 73 -37 200 -19 219 32 21 57 -18 89 -136 112 -201 40 -273
99 -273 221 0 99 59 168 167 195 48 12 155 4 199 -15z m534 -75 l0 -90 -90 0
-90 0 0 90 0 90 90 0 90 0 0 -90z m0 -510 l0 -90 -90 0 -90 0 0 90 0 90 90 0
90 0 0 -90z"/>
</g>
</svg>
