<?xml version="1.0" standalone="no"?>
<!DOCTYPE svg PUBLIC "-//W3C//DTD SVG 20010904//EN"
 "http://www.w3.org/TR/2001/REC-SVG-20010904/DTD/svg10.dtd">
<svg version="1.0" xmlns="http://www.w3.org/2000/svg"
 width="135.000000pt" height="108.000000pt" viewBox="0 0 135.000000 108.000000"
 preserveAspectRatio="xMidYMid meet">

<g transform="translate(0.000000,108.000000) scale(0.100000,-0.100000)"
fill="#000000" stroke="none">
<path d="M394 996 c-53 -24 -91 -66 -103 -114 -6 -23 -16 -29 -65 -41 -135
-32 -196 -175 -122 -283 l22 -33 -25 -39 c-37 -56 -36 -137 2 -194 30 -47 87
-80 142 -84 33 -3 38 -7 50 -42 8 -21 28 -54 46 -72 87 -89 238 -63 290 50 17
37 19 70 19 381 0 310 -2 344 -19 380 -26 56 -68 92 -121 104 -60 14 -58 14
-116 -13z m153 -36 c58 -35 68 -68 68 -225 l0 -140 -52 -3 c-43 -2 -53 0 -53
12 0 12 -11 16 -40 16 -39 0 -40 -1 -40 -35 0 -34 1 -35 40 -35 29 0 40 4 40
16 0 12 10 14 53 12 l52 -3 0 -200 c0 -176 -2 -204 -18 -230 -28 -45 -65 -68
-116 -72 -83 -7 -161 59 -161 137 l0 37 -48 -5 c-140 -13 -219 152 -121 254
l29 30 -30 29 c-61 59 -58 158 6 215 40 34 69 44 122 38 l38 -3 2 39 c4 104
138 172 229 116z m-57 -375 c0 -8 -9 -15 -20 -15 -11 0 -20 7 -20 15 0 8 9 15
20 15 11 0 20 -7 20 -15z"/>
<path d="M390 840 l0 -40 40 0 c29 0 40 4 40 15 0 9 9 15 25 15 24 0 25 -2 25
-70 0 -40 4 -70 10 -70 6 0 10 33 10 80 l0 80 -35 0 c-24 0 -35 5 -35 15 0 11
-11 15 -40 15 l-40 0 0 -40z m60 0 c0 -13 -7 -20 -20 -20 -13 0 -20 7 -20 20
0 13 7 20 20 20 13 0 20 -7 20 -20z"/>
<path d="M210 690 c0 -29 4 -40 15 -40 11 0 15 -12 15 -50 l0 -50 60 0 60 0 0
-60 0 -60 65 0 c37 0 65 4 65 10 0 6 -25 10 -55 10 l-55 0 0 60 0 60 -60 0
-60 0 0 40 c0 29 4 40 15 40 11 0 15 11 15 40 l0 40 -40 0 -40 0 0 -40z m60 0
c0 -13 -7 -20 -20 -20 -13 0 -20 7 -20 20 0 13 7 20 20 20 13 0 20 -7 20 -20z"/>
<path d="M530 340 c0 -143 -1 -150 -20 -150 -11 0 -20 7 -20 15 0 11 -11 15
-40 15 l-40 0 0 -40 0 -40 40 0 c29 0 40 4 40 15 0 10 10 15 30 15 l30 0 0
160 c0 100 -4 160 -10 160 -6 0 -10 -57 -10 -150z m-62 -157 c-5 -26 -38 -29
-38 -4 0 15 6 21 21 21 14 0 19 -5 17 -17z"/>
<path d="M210 440 c0 -29 4 -40 15 -40 12 0 15 -13 15 -60 l0 -60 65 0 c37 0
65 4 65 10 0 6 -25 10 -55 10 l-55 0 0 50 c0 38 4 50 15 50 11 0 15 11 15 40
l0 40 -40 0 -40 0 0 -40z m60 0 c0 -13 -7 -20 -20 -20 -13 0 -20 7 -20 20 0
13 7 20 20 20 13 0 20 -7 20 -20z"/>
<path d="M845 1011 c-47 -12 -72 -28 -102 -68 l-28 -36 -3 -365 c-3 -354 -2
-365 19 -408 68 -141 284 -118 330 35 10 34 14 37 49 38 136 6 220 178 139
286 -17 24 -20 33 -10 46 41 57 54 148 27 199 -16 30 -61 74 -91 90 -11 5 -38
13 -61 16 -37 7 -42 11 -53 46 -14 47 -76 105 -128 119 -42 12 -45 12 -88 2z
m115 -50 c40 -21 80 -83 80 -123 0 -27 2 -28 53 -28 117 0 190 -112 141 -217
-9 -19 -27 -42 -39 -51 l-22 -17 22 -17 c77 -61 70 -188 -14 -243 -33 -22 -49
-26 -90 -23 l-49 3 -5 -39 c-10 -72 -68 -126 -144 -133 -39 -4 -55 0 -83 19
-69 46 -70 52 -70 438 0 327 1 347 20 378 42 68 129 91 200 53z"/>
<path d="M880 875 c0 -11 -11 -15 -40 -15 l-40 0 0 -205 c0 -130 -4 -205 -10
-205 -5 0 -10 -18 -10 -40 l0 -40 40 0 40 0 0 40 c0 33 -3 40 -20 40 -19 0
-20 7 -20 125 l0 125 80 0 80 0 0 -75 c0 -43 -4 -75 -10 -75 -5 0 -10 -16 -10
-35 0 -32 2 -35 30 -35 28 0 30 3 30 35 0 19 -4 35 -10 35 -6 0 -10 32 -10 75
l0 75 50 0 50 0 0 -45 c0 -33 -4 -45 -15 -45 -10 0 -15 -11 -15 -35 0 -33 2
-35 35 -35 33 0 35 2 35 35 0 19 -4 35 -10 35 -5 0 -10 25 -10 55 l0 55 -150
0 -150 0 0 60 0 60 30 0 c20 0 30 -5 30 -15 0 -11 11 -15 40 -15 l40 0 0 40 0
40 -40 0 c-29 0 -40 -4 -40 -15z m60 -25 c0 -13 -7 -20 -20 -20 -13 0 -20 7
-20 20 0 13 7 20 20 20 13 0 20 -7 20 -20z m180 -275 c0 -8 -7 -15 -15 -15 -8
0 -15 7 -15 15 0 8 7 15 15 15 8 0 15 -7 15 -15z m-112 -63 c2 -7 -3 -12 -12
-12 -9 0 -16 7 -16 16 0 17 22 14 28 -4z m-168 -102 c0 -13 -7 -20 -20 -20
-13 0 -20 7 -20 20 0 13 7 20 20 20 13 0 20 -7 20 -20z"/>
<path d="M1070 431 c0 -17 6 -31 16 -35 11 -4 14 -17 12 -43 l-3 -38 -55 -6
-55 -6 68 -1 67 -2 0 50 c0 28 5 50 10 50 6 0 10 14 10 30 0 28 -3 30 -35 30
-32 0 -35 -3 -35 -29z m50 -1 c0 -5 -7 -10 -15 -10 -8 0 -15 5 -15 10 0 6 7
10 15 10 8 0 15 -4 15 -10z"/>
<path d="M920 290 l0 -100 -30 0 c-20 0 -30 5 -30 15 0 11 -11 15 -40 15 -39
0 -40 -1 -40 -35 0 -34 1 -35 40 -35 29 0 40 4 40 15 0 11 11 15 40 15 l40 0
0 105 c0 63 -4 105 -10 105 -6 0 -10 -40 -10 -100z m-80 -105 c0 -8 -9 -15
-20 -15 -11 0 -20 7 -20 15 0 8 9 15 20 15 11 0 20 -7 20 -15z"/>
</g>
</svg>
